<svg id="Capa_1" data-name="Capa 1" xmlns="http://www.w3.org/2000/svg" viewBox="0 0 199.53 27.71"><defs><style>.cls-1{fill:#fff;}</style></defs><title>Letra Blanca </title><path class="cls-1" d="M26,27.17H0V20.66H2.15V6.5H0V0H26V8.69H18.83V6.5H12.66v4.18H18v5.53H12.66v4.45h6.17V18.48H26Z"/><path class="cls-1" d="M47.05,19.39,54.38,21a8.24,8.24,0,0,1-4,4.92,15,15,0,0,1-7.58,1.75q-6,0-9.41-2.69A8.73,8.73,0,0,1,30,17.79a9.09,9.09,0,0,1,3.2-7.15,11.79,11.79,0,0,1,8-2.77,10.45,10.45,0,0,1,6.27,1.62V8.22h6v8.09h-6q-1.11-3.24-3.77-3.24a3.19,3.19,0,0,0-2.77,1.38,6,6,0,0,0-1,3.46A5.26,5.26,0,0,0,41,21.39a3.32,3.32,0,0,0,2.69,1.27Q46.42,22.66,47.05,19.39Z"/><path class="cls-1" d="M57.46,17.6a8.76,8.76,0,0,1,3.52-7q3.51-2.88,9.49-2.87a16.07,16.07,0,0,1,9.78,2.77A8.57,8.57,0,0,1,84,17.68a8.8,8.8,0,0,1-3.59,7.16q-3.6,2.88-9.49,2.87-6.37,0-9.92-2.87A8.89,8.89,0,0,1,57.46,17.6Zm9.94,0q0,4.53,3.24,4.53c2.3,0,3.44-1.53,3.44-4.57a5.41,5.41,0,0,0-.84-3.24,2.84,2.84,0,0,0-2.42-1.16,3,3,0,0,0-2.48,1.14A5,5,0,0,0,67.4,17.64Z"/><path class="cls-1" d="M103.3,27.17H86.8V20.66h2.85V6.5h-3V0h26.76V9h-7.23V6.5h-6.07v4.18h4.68v5.53h-4.68v4.45h3.14Z"/><path class="cls-1" d="M110.59,17.6a8.78,8.78,0,0,1,3.51-7q3.53-2.88,9.49-2.87a16.11,16.11,0,0,1,9.79,2.77,8.59,8.59,0,0,1,3.77,7.23,8.81,8.81,0,0,1-3.6,7.16q-3.59,2.88-9.49,2.87-6.36,0-9.92-2.87A8.88,8.88,0,0,1,110.59,17.6Zm9.94,0q0,4.53,3.24,4.53c2.29,0,3.44-1.53,3.44-4.57a5.41,5.41,0,0,0-.84-3.24A2.85,2.85,0,0,0,124,13.2a3.08,3.08,0,0,0-2.49,1.14A5.07,5.07,0,0,0,120.53,17.64Z"/><path class="cls-1" d="M140.59,17.6a8.78,8.78,0,0,1,3.51-7q3.53-2.88,9.49-2.87a16.11,16.11,0,0,1,9.79,2.77,8.59,8.59,0,0,1,3.77,7.23,8.81,8.81,0,0,1-3.6,7.16q-3.59,2.88-9.49,2.87-6.36,0-9.92-2.87A8.88,8.88,0,0,1,140.59,17.6Zm9.94,0q0,4.53,3.24,4.53c2.29,0,3.44-1.53,3.44-4.57a5.41,5.41,0,0,0-.84-3.24A2.85,2.85,0,0,0,154,13.2a3.08,3.08,0,0,0-2.49,1.14A5.07,5.07,0,0,0,150.53,17.64Z"/><path class="cls-1" d="M199.53,21.21v6H187.25V25.9a12.22,12.22,0,0,1-6.33,1.62,11.1,11.1,0,0,1-7.09-2.44,8.39,8.39,0,0,1-3.09-7q0-4.9,2.85-7.58a10.82,10.82,0,0,1,7.64-2.64,11.17,11.17,0,0,1,6,1.56V6h-2.43V0h12.25V21.21ZM187.3,17.62a5.07,5.07,0,0,0-.82-3A2.78,2.78,0,0,0,184,13.48c-2.22,0-3.34,1.44-3.34,4.31a5,5,0,0,0,.82,2.93A2.77,2.77,0,0,0,184,21.89a3.14,3.14,0,0,0,2.43-1A4.8,4.8,0,0,0,187.3,17.62Z"/></svg>