<svg id="Capa_1" data-name="Capa 1" xmlns="http://www.w3.org/2000/svg" viewBox="0 0 202.71 44.38"><defs><style>.cls-1{fill:#1d1d1b;}</style></defs><title>Letra-Negro-EcoFood</title><path class="cls-1" d="M27.73,33.58H1.82v-6.5H3.93V12.92H1.78V6.41h26V15.1H20.61V12.92H14.43V17.1H19.8v5.52H14.43v4.46h6.18V24.89h7.12Z"/><path class="cls-1" d="M48.83,25.81l7.32,1.64a8.16,8.16,0,0,1-3.94,4.92,15.07,15.07,0,0,1-7.58,1.76c-4,0-7.12-.9-9.42-2.7a8.71,8.71,0,0,1-3.43-7.23A9,9,0,0,1,35,17.06a11.73,11.73,0,0,1,8-2.78,10.45,10.45,0,0,1,6.27,1.62V14.63h6v8.09h-6q-1.11-3.24-3.77-3.24a3.19,3.19,0,0,0-2.77,1.38,5.94,5.94,0,0,0-1,3.46,5.31,5.31,0,0,0,1.05,3.48,3.31,3.31,0,0,0,2.7,1.27Q48.2,29.07,48.83,25.81Z"/><path class="cls-1" d="M59.24,24a8.78,8.78,0,0,1,3.51-7q3.52-2.88,9.5-2.87A16.07,16.07,0,0,1,82,16.86a8.59,8.59,0,0,1,3.77,7.23,8.85,8.85,0,0,1-3.59,7.17q-3.6,2.86-9.5,2.87-6.36,0-9.92-2.87A8.91,8.91,0,0,1,59.24,24Zm9.94,0q0,4.53,3.24,4.53,3.43,0,3.44-4.57A5.43,5.43,0,0,0,75,20.77a2.84,2.84,0,0,0-2.42-1.16,3,3,0,0,0-2.48,1.14A5,5,0,0,0,69.18,24.05Z"/><path class="cls-1" d="M105.08,33.58H88.57v-6.5h2.86V12.92h-3V6.41h26.75v9H108V12.92h-6.08V17.1h4.69v5.52h-4.69v4.46h3.15Z"/><path class="cls-1" d="M112.36,24a8.79,8.79,0,0,1,3.52-7q3.51-2.88,9.49-2.87a16.13,16.13,0,0,1,9.79,2.77,8.59,8.59,0,0,1,3.77,7.23,8.84,8.84,0,0,1-3.6,7.17q-3.59,2.86-9.49,2.87-6.37,0-9.92-2.87A8.92,8.92,0,0,1,112.36,24Zm9.94,0c0,3,1.09,4.53,3.25,4.53S129,27.06,129,24a5.43,5.43,0,0,0-.84-3.24,2.84,2.84,0,0,0-2.42-1.16,3.06,3.06,0,0,0-2.48,1.14A5.07,5.07,0,0,0,122.3,24.05Z"/><path class="cls-1" d="M142.36,24a8.79,8.79,0,0,1,3.52-7q3.51-2.88,9.49-2.87a16.13,16.13,0,0,1,9.79,2.77,8.59,8.59,0,0,1,3.77,7.23,8.84,8.84,0,0,1-3.6,7.17q-3.59,2.86-9.49,2.87-6.37,0-9.92-2.87A8.92,8.92,0,0,1,142.36,24Zm9.94,0c0,3,1.09,4.53,3.25,4.53S159,27.06,159,24a5.43,5.43,0,0,0-.84-3.24,2.84,2.84,0,0,0-2.42-1.16,3.06,3.06,0,0,0-2.48,1.14A5.07,5.07,0,0,0,152.3,24.05Z"/><path class="cls-1" d="M201.31,27.62v6H189V32.31a12.16,12.16,0,0,1-6.32,1.62,11.08,11.08,0,0,1-7.09-2.44,8.39,8.39,0,0,1-3.09-7q0-4.91,2.85-7.58A10.8,10.8,0,0,1,183,14.28a11,11,0,0,1,6,1.57V12.37H186.6v-6h12.25V27.62ZM189.08,24a5.07,5.07,0,0,0-.82-3,2.79,2.79,0,0,0-2.44-1.17q-3.34,0-3.34,4.31a4.88,4.88,0,0,0,.82,2.93,2.74,2.74,0,0,0,2.44,1.18,3.11,3.11,0,0,0,2.42-1A4.75,4.75,0,0,0,189.08,24Z"/></svg>