<svg id="Capa_1" data-name="Capa 1" xmlns="http://www.w3.org/2000/svg" viewBox="0 0 93.6 129.23"><title>Logo-Negro-EcoFood</title><path d="M13.86,47.21l4.27,46.35A11.57,11.57,0,0,0,29.7,105.14H68.19A11.58,11.58,0,0,0,79.77,93.56L83.5,47.21Zm10.52,35a6.19,6.19,0,0,1,.55-3.8,52.73,52.73,0,0,1,3.67-5.52L24.16,69H37.72c1.55,3.9,3.08,7.76,4.61,11.63l-.5.43-4.12-2.7-8,13.09C27.68,88.72,25.23,85.92,24.38,82.25Zm22.32,13c-3.88,0-7.53.11-11.16,0-2.71-.11-3.95-2-2.95-4.53a40.16,40.16,0,0,1,2.8-5.2,1.39,1.39,0,0,1,1-.66c3.27,0,6.55,0,9.83,0a2,2,0,0,1,.52.19Zm1.73-33.71c0,.12-.2.23-.29.36l-5,7.8-8-5.24a1.05,1.05,0,0,1-.31-1.7c1.72-2.47,3.36-5,5.12-7.43,1.44-2,2.69-2.08,4.29-.23S47,58.78,48.3,60.63A1.78,1.78,0,0,1,48.43,61.59Zm3.81,1c-1.33-2.11-2.51-4.33-4-6.34a35.22,35.22,0,0,0-3.63-3.74,8.3,8.3,0,0,1,1.66-.28c3,.05,6,.16,9.05.24a3.48,3.48,0,0,1,3.11,1.76c.95,1.62,1.9,3.23,2.78,4.88.46.88.93,1,1.84.58a30.62,30.62,0,0,1,3.4-1.24l.39.58q-1.35,2.25-2.71,4.5A12.7,12.7,0,0,0,62.65,66c-.79,2.47-2.49,2.64-4.7,2.39-2.73-.32-5.5-.3-8.82-.45a21.35,21.35,0,0,1,2.51-2.31C53,64.77,53,63.8,52.24,62.55ZM71.12,86.64c-1.39,2.19-2.82,4.36-4.24,6.54a4,4,0,0,1-3.82,1.92c-1.66-.09-3.32,0-5,0-.15,1.67-.27,3.13-.44,5.08-.85-.91-1.41-1.42-1.86-2C53.84,95.52,51.9,92.87,50,90.2a1.46,1.46,0,0,1-.15-1.3c1.68-2.43,3.43-4.8,5.18-7.18.51-.68,1.08-1.33,1.62-2l.69.4c.15,1.58.3,3.16.47,4.86h14A11.82,11.82,0,0,1,71.12,86.64Zm-1.45-3.79c-1.82.09-4,.75-5.37,0s-2.07-2.84-3-4.35c-1.09-1.7-2.17-3.42-3.31-5.23,1.53-.8,3-1.5,4.41-2.35s2.72-1.89,4.2-2.93a13.64,13.64,0,0,1,1,1.23c1.7,2.87,3.42,5.72,5,8.63C74.07,80.63,72.85,82.7,69.67,82.85Z"/><rect x="8.78" y="37.63" width="79.79" height="8.14" rx="4.07"/><path d="M34.44,31.18c.73.7,1.52,1.35,2.19,2.1s1.16,1.5,1.92,2.51c-2.32.17-4.08.65-5.83-1.24-3.13-3.38-6.68-6.39-10-9.63a47.13,47.13,0,0,1-3.27-3.78,3,3,0,0,0-3.33-.07C15,22,13.85,23,12.75,24c-1.67,1.51-1.78,5-.11,6.51,1.88,1.69,3.69,3.53,6.49,3.72.6,0,1.16.63,1.74,1l-.18.41c-2.09.21-4.19.42-6.29.61a.73.73,0,0,1-.5-.15C11.62,33.8,9,31.8,8.46,28.37A8.42,8.42,0,0,1,9.72,22c.21-.29.09-1.22-.13-1.32a6.24,6.24,0,0,0-2.68-.77,6.91,6.91,0,0,1-4.52-1.25A5.37,5.37,0,0,1,.24,12.54,2.79,2.79,0,0,1,3,11.13c.32.06.61.22.93.28,2.17.36,2.27.29,2.73-1.86S8.16,6,9.54,5.93c2,0,2.57,1.66,3.16,3.05a10.46,10.46,0,0,1,.23,6.68c-.46,1.84.29,2.58,2.11,2.18,3.34-.72,6.22,0,8.48,2.75,1.26,1.53,2.65,2.95,4.26,4.73a39.69,39.69,0,0,0-.06-4.45c0-.43-.76-.85-1.25-1.13-4.41-2.56-6.6-6.75-6-11.59.08-.62.29-1.23.48-2l3.14,1.19c1.05-2.12,2-4.17,3.06-6.15C28-.32,28.47-.36,29.63.92a15.81,15.81,0,0,1,1.73,2.33c.51.82.91,1.7,1.39,2.61.69-.21,1.39-.41,2.08-.65s1.18,0,1.38.83c1.16,4.74,1,9.14-3.2,12.49a6.1,6.1,0,0,0-2.52,4.85,2.07,2.07,0,0,1-2.18,2.29l6.17,5.56ZM28,18c.55-3-1.91-7.71-5-8.32C23.14,13.32,25.43,15.59,28,18Zm.27-13.82c-1.59,3.74-1.5,4.33,1,6.72C31.26,7.94,31.17,7.3,28.28,4.17Zm5.4,5.38A6.83,6.83,0,0,0,31,17.07C33.07,15,34.88,12.88,33.68,9.55ZM3.32,14.11a2.83,2.83,0,0,0,4,2.6C6.51,15.07,5,14.7,3.32,14.11ZM9.73,9.19c-1,2.28-.69,4.29.83,5.62A7.94,7.94,0,0,0,9.73,9.19Z"/><path d="M34.48,31.23a9.64,9.64,0,0,1,2.11-12.59,9,9,0,0,1,2.82-1.39,1.46,1.46,0,0,0,1.17-1.74c-.11-.91-.18-1.84-.25-2.76C40.15,10.46,41.38,9,43.26,8a3.26,3.26,0,0,1,2-.37c1.86.39,3.67,1,5.73,1.55a7.07,7.07,0,0,1-.8,1.64c-.91,1.11-2,2.09-2.9,3.18a5,5,0,0,0-1.09,1.73,1.41,1.41,0,0,0,.63,1.19c1.78.71,3.6,1.29,5.47,1.95,1.24-4.62,4.05-7.41,9.56-6.29a15.28,15.28,0,0,1,2.57-7.7C65,4,65.51,3.18,66.73,3.74a2.66,2.66,0,0,1,.88,3c-.59,1.7-1.19,3.4-1.74,5.12a1.24,1.24,0,0,0,.81,1.77c4.13,1.52,6.07,8.47,2.23,12.77-3.35,3.76-8.2,3-11.76,1.56-.25-.1-.49-.23-.56-.26L54.3,34.36a1.72,1.72,0,0,1-1.87,1.26,50.79,50.79,0,0,1-5.26.05c.43-.41.86-.83,1.3-1.23A12,12,0,0,1,50,33.05c2.67-1.68,3.2-4.07,2.5-7A9.6,9.6,0,0,0,47.78,20a2.08,2.08,0,0,0-1.69,0,4.7,4.7,0,0,1-3.76.18,3.25,3.25,0,0,0-3.46.75c-2.75,2.44-3.46,5.46-2.69,8.94.12.53.16,1.07.26,1.83l-2-.58ZM61.53,26.1c3.45.26,4.92-1.08,6-3.06,1.13-2.14.61-4.14-.68-6a1.47,1.47,0,0,0-1.38-.28,4.25,4.25,0,0,1-4.21-.33c-2.83-1.63-2.85-1.6-5.08.87-.25.27-.47.56-.7.86a3.53,3.53,0,0,0-.32,3.89C56.57,25.38,59.59,25.73,61.53,26.1ZM46.32,10.45c-1.89,0-3,1.69-3,4.38Z"/><path d="M80.53,35.51c1.7-2.27,3.37-4.55,5.11-6.79,1.14-1.48,1.09-1.37-.54-2.36a20.89,20.89,0,0,1-3.88-3.07C79,21,78.13,21.15,76.45,23.9c-2.36,3.86-4.82,7.66-7.3,11.45a1.84,1.84,0,0,1-1.34.73c-1.65,0-3.3-.19-5.38-.33a11.92,11.92,0,0,1,1.88-1.12,6.45,6.45,0,0,0,3.41-2.92c1.8-2.85,3.54-5.75,5.4-8.56A16.77,16.77,0,0,1,76,19.76c2-1.83,4.33-1.88,6.7-.2a13.22,13.22,0,0,0,1.1-2.29c.55-2.13,2-3.47,3.68-4.7.78-.58,1.56-1.16,2.31-1.79a2,2,0,0,1,2.66-.11,2.51,2.51,0,0,1,1.13,2.76A11.41,11.41,0,0,1,89.76,20a7.38,7.38,0,0,0-1,1.12c-1.26,1.62-1.26,1.88,0,3.43A3.68,3.68,0,0,1,89.07,29c-1.28,2.19-2.8,4.23-4.28,6.29-1.11,1.56-2.65.28-4,.63ZM84.79,22l.63.13c.92-3.39,4.21-5.35,5.1-8.78a1,1,0,0,0-.79.31c-1.7,2.39-3.41,4.79-5,7.23C84.52,21.09,84.75,21.59,84.79,22Z"/><path d="M72.69,2.56a10,10,0,0,1,9.75,7.75,30.42,30.42,0,0,1,.79,5.48c.13,1.51-.48,1.91-1.81,1.22a9.4,9.4,0,0,0-4.71-.81c-1.62,0-2.64-1.43-3-2.64a101.16,101.16,0,0,1-2.5-9.91C71,2.66,71.24,2.54,72.69,2.56Zm8,11c-.48-3.15-3.45-6.84-5.84-7.33C74.89,10.32,76.65,13,80.65,13.61Z"/><path d="M38.24,28.14c.07-2.08.67-2.35,2.07-1.59,2.45,1.33,4.9,2.62,6,5.4.14.34.43.66.45,1A18,18,0,0,1,46.75,35c-.81-.22-2-.17-2.35-.69a14.94,14.94,0,0,0-5.33-4.91C38.58,29.11,38.37,28.35,38.24,28.14Z"/><path d="M15.42,30.47l-1.24-.63a6.7,6.7,0,0,1,.87-1.32,1.79,1.79,0,0,1,1.1-.51,12.17,12.17,0,0,1,1.89.22,10.29,10.29,0,0,1-1.12,1.87C16.66,30.37,16.06,30.33,15.42,30.47Z"/><path d="M28.36,31.86c.44.53.86.94.81,1-.45.64-1,1.22-1.5,1.81-.24-.27-.75-.68-.69-.8A18.89,18.89,0,0,1,28.36,31.86Z"/><path d="M28.89,36.16l1.4-1.73.49.12c0,.48.19,1.16,0,1.38a5.13,5.13,0,0,1-1.64.66Z"/><path d="M25,31.8,26,29.57c.32.52.79,1.1.71,1.19a11.68,11.68,0,0,1-1.55,1.33Z"/><path d="M49.05,108.17h9.38a4.71,4.71,0,0,1,3.62,1.61,2.26,2.26,0,0,1,.27,3A4.37,4.37,0,0,1,58,115c-3.64-.28-7.3-.27-11-.2-.75,0-1.49.85-2.23,1.31.52.77.88,1.91,1.59,2.23a41.57,41.57,0,0,0,6.85,2.33c3.71.9,7.2-.39,10.7-1.48,4.42-1.37,8.24-3.92,12.24-6.12a39.45,39.45,0,0,1,4.94-2.5,4.81,4.81,0,0,1,3.13-.09c2.28.85,2.47,3.18.52,4.62a24.77,24.77,0,0,1-2.24,1.41c-2.43,1.41-4.93,2.72-7.28,4.25a50.58,50.58,0,0,1-12.57,5.71c-2.38.75-4.7,1.74-7.12,2.34-4.25,1-8.35.13-12.42-1.24-3.91-1.31-7.88-2.45-11.85-3.56a18.59,18.59,0,0,0-3.66-.44c-.68-.05-.92-.31-.92-1,0-3-.07-6,0-9a1.55,1.55,0,0,1,.65-1.22c3.69-1.39,7.13-3.49,11.12-4a30.16,30.16,0,0,1,3.43-.11h7.13Z"/><path d="M23.61,117.22v9.5c0,1.67-.42,2.15-2.07,2.17-2.55,0-5.1,0-7.65,0-1.85,0-2.68-.74-2.67-2.61,0-4.09.08-8.18.09-12.27,0-2.33-.09-4.66-.11-7,0-1.51.59-2.26,2.08-2.28,2.73,0,5.46,0,8.18.1a1.83,1.83,0,0,1,2,2.07c0,3.43,0,6.86,0,10.28Z"/></svg>